<?xml version="1.0" encoding="UTF-8"?>
<svg width="100mm" height="100mm" version="1.1" viewBox="0 0 100 100" xmlns="http://www.w3.org/2000/svg"><g><path d="m9.6 31.3c4.69 1.36 9.49 2.32 14.3 2.94 1.74.222 3.48.375 5.22.563 9.16 1.04 18.4 1.09 27.6.815 4.28-.0333 8.52-.567 12.8-.543 2.38-.0074 4.77.0316 7.15-.148.291.0812 1.44-4.04 1.15-4.12-3.16-.402-6.36-.293-9.54-.27-3.41.141-6.84.239-10.2.0705-9-.392-18-1.16-27-1.56-4.54-.268-9.08-.556-13.6-1.02-.993-.102-1.98-.243-2.97-.355-1.1-.125-2.35-.242-3.47-.351-.281-.101-1.71 3.88-1.43 3.98z" style="fill:#ffffff;stroke-width:.265"/><path d="m13 50.5c7.01.767 14.1.638 21.1.49 4.48-.131 8.96-.43 13.4-.791 2.12-.171 3.1-.283 5.12-.251 3.89.446 7.73 1.27 11.6 1.84 3.98.54 7.99.862 12 1.21.306.114 1.91-4.21 1.61-4.32-3.92-.644-7.89-.961-11.8-1.49-3.98-.524-7.97-1.03-11.9-1.69-2.85-.378-1.35-.228-5.26-.418-5.48-.267-11-.254-16.5.0038-6.82.361-13.6.741-20.5 1.33-.289.0743.761 4.16 1.05 4.09z" style="fill:#ffffff;stroke-width:.265"/><path d="m70.9 23.7c2.37 1.61 4.65 3.38 6.64 5.45.479.496.924 1.02 1.39 1.53.416.522.853 1.03 1.25 1.57 1.44 1.97 2.65 4.1 3.96 6.15 1.47 2.29 1.39 2.14 2.91 4.34 1.64 2.47 3.36 4.89 4.98 7.37.478.73.677 1.23.344.467-.099-.242-.0404-.676-.297-.725-.533-.103-1.07.204-1.59.363-.89.271-1.77.573-2.63.924-2.49 1.01-4.81 2.17-7.06 3.65-1.28.842-2.47 1.82-3.7 2.74-2.89 2.59-3.65 3.07-6.06 5.96-.661.792-1.23 1.66-1.84 2.49-.202.304 4.1 3.16 4.3 2.85 2.44-2.55 4.94-5.04 7.67-7.27 1.1-.831 2.16-1.71 3.29-2.49 2.18-1.53 3.86-2.47 6.19-3.67.331-.17 3.95-1.85 4.4-2.24.635-.536 1.05-1.29 1.57-1.93.0346-.615.177-1.23.104-1.84-.0911-.758-1-2.34-1.33-2.91-1.21-2.11-2.56-4.14-3.97-6.13-2.78-4.19-5.42-8.48-8.51-12.5-.519-.593-1.02-1.21-1.56-1.78-2.29-2.42-5.01-4.53-8.06-5.9-.247-.17-2.65 3.33-2.41 3.5z" style="fill:#ffffff;stroke-width:.265"/></g></svg>
