<?xml version="1.0" encoding="UTF-8"?>
<svg width="100mm" height="100mm" version="1.1" viewBox="0 0 100 100" xmlns="http://www.w3.org/2000/svg"><g><path d="m8.13 7.12c.547 6.21 1.27 12.4 1.49 18.7.065 1.83.0522 3.66.0783 5.49.116 9.04-.0885 18.1.437 27.1.255 4.46.896 8.8 2.37 13 .731 1.4.759 2.97 1 4.5.379 1.26.626 2.99 1.78 3.85.349.262.791.371 1.19.556 3.8-.221 7.61.0557 11.4.244 5.59.224 11.2.0142 16.8-.16 3.09-.188 6.19-.126 9.29-.114 1.98.0085 3.95-.106 5.93.0077 1.48.191 2.96.238 4.45.204.968-.169 1.97-.0236 2.95-.0065.285-.0388.594.0057.855-.116.5-.235 1.03-.497 1.37-.929 1.64-2.05 1.16-5.29.959-7.65-.123-1.48-.296-2.95-.445-4.43-1.17-8.87-2.78-17.7-4.6-26.4-.473-2.51-1.2-4.96-1.87-7.42-.94-3.59-2.13-7.1-3.23-10.6-1.34-4.21-2.52-8.48-3.65-12.8-.225-.732-.928-3.58-1.9-3.77-1.52-.294-2.3.12-3.4.615-3.38 1.45-7.22 1.25-10.8 1.25-.534-.0404-1.07-.0837-1.6-.121-1-.0705-2.01-.114-3.01-.203-3.52-.313-7.01-.904-10.5-1.52-2.51-.307-5.03-.97-7.57-.909-.674.016-1.35.0747-2.02.112-1.04.187-2.06.544-3.12.526-.282.0836.901 4.07 1.18 3.98 1.1-.0863 2.17-.335 3.27-.407-.153-.000979-.613.00119-.46-.00294 1.6-.0431 3.11.47 4.66.812.687.152 1.38.281 2.07.422 6.08 1.32 12.2 2.5 18.5 2.25 4.23-.235 8.71-.485 12.3-3.04 1.42-1.16.0626.148-1.81-.457-.38-.123-.409-.692-.67-.995-.055-.064.0197.168.0303.251.149 1.18.072.624.314 2.04.803 4.49 1.95 8.89 3.43 13.2 1.18 3.5 2.56 6.93 3.78 10.4.137.411.411 1.19.52 1.65.418 1.74.32 3.56.525 5.33.758 8.94 2.05 17.8 4 26.6.699 3.02.979 4.14 1.57 6.91.0932.437.0901.903.264 1.31.0789.187.794.0041.605-.0696-.187-.0727-.4.0042-.601.0063-1.01.0328-2.03.129-3.02.256.3-.003.6-.0035.9-.0092.204-.0038-.407-.0213-.609-.0505-.71-.103-1.42-.235-2.12-.348-.709-.101-1.49-.229-2.2-.255-2.11-.0786-4.22-.0087-6.33-.0414-2.31.0321-4.61.134-6.92-.0836-6.44-.311-12.9-.634-19.3-.38-2.53.154-5.05.273-7.57.599-.382.0495-.762.107-1.14.167-.263.041-.882-.115-.788.134.103.275.584.0654.875.0981.343.472.341.386.51.926.0209.0664-.0693-.122-.0912-.188-.198-.598-.311-1.22-.475-1.83-.287-1.67-.588-3.33-1-4.97-.941-3.97-1.3-8.04-1.36-12.1-.018-1.11-.0582-2.22-.0541-3.34.0294-7.93.821-15.9.473-23.8-.468-8.27-.913-16.7-3.42-24.6-.0483-.307-4.4.375-4.35.683z" style="fill:#ffffff;stroke-width:.265"/><path d="m36.2 37.2c-.78 7.3-1.04 14.6-1.21 22-.0193 6.61-.0757 13.3.66 19.8.282 1.87.682 3.72.932 5.6.175 1.1.0237 2.2.0386 3.31.0094.694.062 1.11.127 1.79.352 1.94.972 2.87 2.77 3.73.247.0943.488.204.74.283.723.227 1.47.321 2.18.58.826.299 1.64.635 2.46.938 5.02 1.62 10.3 2.05 15.5 2.29 3.06.0474 6.12.0186 9.17-.274 1.25-.121 2.49-.281 3.7-.601.113-.055.461-.142.338-.165-.528-.0992-1.09-.19-1.61-.0738-.281.0624.546.189.829.247.311.0643.63.0903.947.119 1.5.137 1.78.0609 3.6.019 1.42-.168 3.1-.202 4.28-1.15.228-.183.428-.401.641-.601 1.5-2.11 2.55-4.53 3.24-7.02.279-1.01.482-2.04.723-3.06 1.07-5.61 1.53-11.3 1.36-17.1-.105-3.57-.393-5.71-.761-9.24-.95-7.66-2.19-15.3-3.75-22.8-.26.371-.194-1.9-.348-1.75-.0277.0275-.0222.155-.0162.116.0279-.18.103-.359.0818-.539-.0498-.428-.194-.839-.291-1.26-1.23-1.76-3.34-2.16-5.32-2.56-5.2-.699-10.5-.328-15.7-.0406-2.82.123-5.62.539-8.42.878-1.97.411-3.96.646-5.98.652.143.0035.573.0166.43.0104-.955-.041-1.91-.126-2.86-.163-.557-.0077-1.51-.0248-1.9.0111-.464.0419-1.21.305-1.7.414-.267.129 1.56 3.91 1.83 3.78.165-.0431.33-.087.496-.129.125-.0318.247-.0734.374-.0926.0282-.0043.111.0223.0823.0236-.31.0143-1.24-.000794-.366.0109 1.57.0733 3.12.337 4.69.326 2.17.0036 4.3-.305 6.44-.651 2.72-.332 5.46-.479 8.21-.435 4.27-.0592 8.53-.0943 12.8-.252.578.000529 1.59-.0265 2.23.0527.191.0236.374.0885.563.122.0898.016.184.0016.272.0264.0901.0254.186.186.253.121.0718-.0688-.0533-.192-.0799-.287-.0378-.324-.0953-.646-.113-.972-.0045-.082.0782-.318.0462-.242-.43 1.02-.432 2.19-.508 3.26.0915 4.57.605 9.09 1.31 13.6.25 1.61.557 3.2.815 4.81.237 1.48.447 2.96.67 4.44.271 2.92.581 5.85.694 8.78.21 5.41-.0793 10.8-.664 16.2-.136.928-.244 1.86-.408 2.79-.336 1.89-.95 3.71-1.63 5.49.0464-.0446.155-.0714.139-.134-.0054-.0211-.201.0208-.528.0531-.867.0856-1.74.114-2.61.171.0054.0154.0325.0452.0162.0463-.191.0134-1.73.029-2.03.096-.0916.0204-.121.179-.215.181-1.45.0322-1.31.0653-2.03-.211-3.33-.194-6.67.0584-10-.0775-4.96-.135-9.97-.32-14.8-1.38-.46-.0877-.927-.142-1.38-.263-.396-.106-.769-.288-1.16-.417-.289-.0954-1.45-.429-1.78-.485-.154-.0254-.312.0036-.468-.0075-.136-.0097-.27-.0364-.405-.0546-.209-.0726-.557-.229-.618-.137-.0477.0706.0303.17.0205.255-.0249.215-.317-.737-.216-.607-.0845-1.77.0709-3.55-.16-5.31-.239-1.77-.614-3.52-.542-5.33.0401-3.48.289-6.96.409-10.4.0501-1.46.0669-2.92.103-4.38.039-1.57.0818-3.14.123-4.71.102-7.36.305-14.8-.501-22.1 0-.302-4.27-.302-4.27 0z" style="fill:#ffffff;stroke-width:.265"/></g></svg>
